<svg width="200" height="200" viewBox="0 0 200 200" fill="none" xmlns="http://www.w3.org/2000/svg">
<rect width="200" height="200" fill="#E5E7EB"/>
<path d="M162.5 50H37.5C33.3579 50 30 53.3579 30 57.5V142.5C30 146.642 33.3579 150 37.5 150H162.5C166.642 150 170 146.642 170 142.5V57.5C170 53.3579 166.642 50 162.5 50Z" stroke="#9CA3AF" stroke-width="4"/>
<path d="M70 90C75.5228 90 80 85.5228 80 80C80 74.4772 75.5228 70 70 70C64.4772 70 60 74.4772 60 80C60 85.5228 64.4772 90 70 90Z" stroke="#9CA3AF" stroke-width="4"/>
<path d="M170 125L140 95L45 150" stroke="#9CA3AF" stroke-width="4"/>
</svg>